<?xml version="1.0" encoding="UTF-8" standalone="no"?>
<svg
   version="1.1"
   width="8"
   height="8"
   shape-rendering="crispEdges"
   id="svg1444"
   sodipodi:docname="favicon-dark.svg"
   inkscape:version="1.2.2 (b0a8486541, 2022-12-01)"
   inkscape:export-filename="/home/mfkn/projects/mfurquimdev/visual_identity/logos/smallest_logo_transparent.png"
   inkscape:export-xdpi="958.40265"
   inkscape:export-ydpi="958.40265"
   xmlns:inkscape="http://www.inkscape.org/namespaces/inkscape"
   xmlns:sodipodi="http://sodipodi.sourceforge.net/DTD/sodipodi-0.dtd"
   xmlns="http://www.w3.org/2000/svg"
   xmlns:svg="http://www.w3.org/2000/svg">
  <defs
     id="defs1448" />
  <sodipodi:namedview
     id="namedview1446"
     pagecolor="#505050"
     bordercolor="#eeeeee"
     borderopacity="1"
     inkscape:pageshadow="0"
     inkscape:pageopacity="0"
     inkscape:pagecheckerboard="0"
     showgrid="false"
     inkscape:zoom="84.6"
     inkscape:cx="3.1264775"
     inkscape:cy="3.6938534"
     inkscape:window-width="1920"
     inkscape:window-height="1062"
     inkscape:window-x="1366"
     inkscape:window-y="420"
     inkscape:window-maximized="1"
     inkscape:current-layer="svg1444"
     inkscape:showpageshadow="0"
     inkscape:deskcolor="#505050" />
  <rect
     style="fill:#2e3440;fill-opacity:1;stroke:none;stroke-width:0.999999;stroke-opacity:1"
     id="rect2494"
     width="8"
     height="8"
     x="0"
     y="0" />
  <path
     id="rect1400"
     style="fill:#66738e;fill-opacity:1;stroke:#66738e;stroke-width:0.01;stroke-opacity:1"
     d="m 7.005,6.005 h 1 v 1 h -1 z m -6,0 h 1 v 1 h -1 z m 6,-1 h 1 v 1 h -1 z m -6,0 h 1 v 1 h -1 z m 6,-1 h 1 v 1 h -1 z m -4,0 h 1 v 1 h -1 z m -2,0 h 1 v 1 h -1 z m 3,-1 h 1 v 1 h -1 z m -2,0 h 1 v 1 h -1 z m -1,0 h 1 v 1 h -1 z m -1,-1 h 1 v 1 h -1 z" />
  <path
     id="rect1394"
     style="fill:#d8dee9;stroke:#d8dee9;stroke-width:0.01"
     d="m 4.005,6.005 h 1 v 1 h -1 z m 1,-1 h 1 v 1 h -1 z m 0,-1 h 1 v 1 h -1 z m 1,-1 h 1 v 1 h -1 z m -1,0 h 1 v 1 h -1 z m 0,-1 h 1 v 1 h -1 z m 1,-1 h 1 v 1 h -1 z" />
</svg>
